<svg width="200" height="200" viewBox="0 0 200 200" fill="none" xmlns="http://www.w3.org/2000/svg">
  <!-- Abstract geometric background -->
  <rect x="20" y="20" width="160" height="160" fill="#1a1814"/>

  <!-- Decorative corner elements -->
  <rect x="20" y="20" width="40" height="4" fill="#d4622a"/>
  <rect x="20" y="20" width="4" height="40" fill="#d4622a"/>
  <rect x="140" y="176" width="40" height="4" fill="#d4622a"/>
  <rect x="176" y="140" width="4" height="40" fill="#d4622a"/>

  <!-- Abstract geometric shape -->
  <path d="M100 60 L140 100 L100 140 L60 100 Z" fill="#d4622a" opacity="0.2"/>

  <!-- Letter A -->
  <path d="M70 140 L70 80 L90 60 L110 80 L110 100 L90 100 M90 100 L90 140"
        stroke="#f5f0e6"
        stroke-width="6"
        stroke-linecap="square"
        stroke-linejoin="miter"
        fill="none"/>

  <!-- Letter S -->
  <path d="M120 75 L135 75 L135 90 L120 90 L120 110 L135 110 L135 125 L120 125"
        stroke="#f5f0e6"
        stroke-width="6"
        stroke-linecap="square"
        stroke-linejoin="miter"
        fill="none"/>

  <!-- Small accent dot -->
  <circle cx="100" cy="165" r="3" fill="#d4622a"/>
</svg>
